<?xml version="1.0" encoding="UTF-8"?>
<!DOCTYPE svg PUBLIC "-//W3C//DTD SVG 1.1//EN" "http://www.w3.org/Graphics/SVG/1.1/DTD/svg11.dtd">
<!-- Creator: CorelDRAW X6 -->
<svg xmlns="http://www.w3.org/2000/svg" xml:space="preserve" width="1111px" height="1111px" version="1.1" style="shape-rendering:geometricPrecision; text-rendering:geometricPrecision; image-rendering:optimizeQuality; fill-rule:evenodd; clip-rule:evenodd"
viewBox="0 0 1113 1113"
 xmlns:xlink="http://www.w3.org/1999/xlink">
 <defs>
  <style type="text/css">
   <![CDATA[
    .fil1 {fill:none}
    .fil0 {fill:#3DCFAB}
    .fil4 {fill:#49A7FF}
    .fil3 {fill:#49D6FF}
    .fil2 {fill:#49FFBD}
    .fil9 {fill:#B4FF49}
    .fil5 {fill:#CE49FF}
    .fil6 {fill:#FF4981}
    .fil7 {fill:#FF8E49}
    .fil8 {fill:#FFD249}
   ]]>
  </style>
 </defs>
 <g id="Слой_x0020_1">
  <metadata id="CorelCorpID_0Corel-Layer"/>
  <g id="_725657232">
   <circle class="fil0" cx="557" cy="551" r="387"/>
   <path class="fil1" d="M127 381l-86 -35m337 -218l-25 -58m0 0l-11 -27m390 83l34 -85m218 329l83 -36m-79 399l84 35m-332 217l36 84m-395 -81l-34 84m-219 -335l-85 35m514 -772c307,0 556,249 556,557 0,307 -249,556 -556,556 -308,0 -557,-249 -557,-556 0,-308 249,-557 557,-557zm1 92c257,0 465,208 465,465 0,257 -208,465 -465,465 -257,0 -466,-208 -466,-465 0,-257 209,-465 466,-465z"/>
   <path class="fil2" d="M378 128c55,-23 116,-36 180,-36 61,0 120,12 174,34l34 -85c-65,-27 -135,-41 -209,-41 -76,0 -149,15 -215,43l11 27 25 58z"/>
   <path class="fil3" d="M127 381c46,-114 137,-205 251,-253l-25 -58 -11 -27c-136,57 -245,167 -301,303l86 35z"/>
   <path class="fil4" d="M92 557c0,-62 13,-121 35,-176l-86 -35c-26,65 -41,136 -41,211 0,76 15,149 43,215l85 -35c-23,-56 -36,-116 -36,-180z"/>
   <path class="fil5" d="M381 988c-114,-47 -205,-138 -253,-251l-85 35c57,136 167,245 304,300l34 -84z"/>
   <path class="fil6" d="M381 988l-34 84c64,27 135,41 210,41 77,0 151,-16 219,-44l-36 -84c-56,24 -118,37 -182,37 -63,0 -122,-12 -177,-34z"/>
   <path class="fil7" d="M988 733c-46,114 -136,204 -248,252l36 84c134,-58 241,-166 296,-301l-84 -35z"/>
   <path class="fil8" d="M1023 557c0,63 -12,122 -35,176l84 35c27,-65 41,-137 41,-211 0,-79 -16,-155 -46,-223l-83 36c25,58 39,121 39,187z"/>
   <path class="fil9" d="M732 126c112,45 203,133 252,244l83 -36c-58,-133 -166,-239 -301,-293l-34 85z"/>
  </g>
 </g>
</svg>
